# xmcd
#
# Track frame offsets:
#	150
#	22737
#	51806
#	64901
#	86261
#	111872
#	131630
#	154516
#	196961
#	220945
#
# Disc length: 3202 seconds
#
# Revision: 0
# Processed by: cddbd v1.5.2PL0 Copyright (c) Steve Scherf et al.
# Submitted via: EZCDAudioConverter 2.2.0.1
#
DISCID=7e0c800a
DTITLE=Bobby Dirninger - The Book
DYEAR=2011
DGENRE=
TTITLE0=Like That Music
TTITLE1=Late at Night
TTITLE2=Love is a Feeling
TTITLE3=God
TTITLE4=Mississippi
TTITLE5=You'll Be on Fire
TTITLE6=Mrs Self
TTITLE7=Memphis
TTITLE8=The Book
TTITLE9=Exciusion Culturelle
EXTD=
EXTT0=
EXTT1=
EXTT2=
EXTT3=
EXTT4=
EXTT5=
EXTT6=
EXTT7=
EXTT8=
EXTT9=
PLAYORDER=
